<svg width="591" height="671" viewBox="0 0 591 671" fill="none" xmlns="http://www.w3.org/2000/svg">
<path d="M339.375 167.75V139.792C339.375 117.547 330.538 96.2127 314.809 80.4831C299.079 64.7535 277.745 55.9167 255.5 55.9167C233.255 55.9167 211.921 64.7535 196.191 80.4831C180.462 96.2127 171.625 117.547 171.625 139.792V317.271C171.625 326.721 166.732 335.388 159.351 341.315C134.489 361.231 116.425 388.376 107.656 419.001C98.887 449.626 99.8456 482.218 110.399 512.275C120.953 542.331 140.581 568.368 166.571 586.788C192.561 605.208 223.631 615.101 255.486 615.101C287.342 615.101 318.411 605.208 344.401 586.788C370.391 568.368 390.019 542.331 400.573 512.275C411.126 482.218 412.085 449.626 403.316 419.001C394.547 388.376 376.483 361.231 351.621 341.315C344.268 335.388 339.375 326.721 339.375 317.271V279.583" stroke="black" stroke-width="40" stroke-linecap="round"/>
<path d="M325.396 461.313C325.396 479.85 318.032 497.628 304.924 510.736C291.816 523.844 274.038 531.208 255.5 531.208C236.962 531.208 219.184 523.844 206.076 510.736C192.968 497.628 185.604 479.85 185.604 461.313C185.604 442.775 192.968 424.997 206.076 411.889C219.184 398.781 236.962 391.417 255.5 391.417C274.038 391.417 291.816 398.781 304.924 411.889C318.032 424.997 325.396 442.775 325.396 461.313Z" stroke="#EA7E80" stroke-width="40"/>
<path d="M255.5 391.417V335.5M255.5 139.792V223.667" stroke="#EA7E80" stroke-width="40" stroke-linecap="round"/>
</svg>
